<svg xmlns="http://www.w3.org/2000/svg"><defs><path id="g-100" d="M4.75-31L4.75-31Q4.75-45.94 11.94-55.41Q19.13-64.88 30.56-64.88L30.56-64.88Q36.50-64.88 40.69-62.53Q44.88-60.19 49.13-54.50L49.13-54.50L49.13-85.38L59-85.38L59 0L50.06 0L50.06-10.75Q46.13-4 41.47-1.09Q36.81 1.81 30.06 1.81L30.06 1.81Q18.94 1.81 11.84-7.44Q4.75-16.69 4.75-31ZM15.50-32.25L15.50-32.25Q15.50-19.94 19.78-13.09Q24.06-6.25 31.75-6.25L31.75-6.25Q38.94-6.25 44.56-12.69L44.56-12.69Q47-15.63 48.06-18.41Q49.13-21.19 49.13-25.63L49.13-25.63L49.13-38.81Q49.13-43 48.25-45.56Q47.38-48.13 45.44-50.56L45.44-50.56Q43.25-53.50 39.56-55.28Q35.88-57.06 32.13-57.06L32.13-57.06Q24.50-57.06 20-50.31Q15.50-43.56 15.50-32.25Z"/>,<path id="g-101" d="M4.88-31.25L4.88-31.25Q4.88-46.06 13.06-55.41Q21.25-64.75 34.19-64.75L34.19-64.75Q42.13-64.75 48.38-60.94Q54.63-57.13 58-50.19L58-50.19Q59.94-46.06 60.78-41.66Q61.63-37.25 61.69-30.75L61.69-30.75L15.75-30.75Q15.75-25.19 16.31-22.09Q16.88-19 18.31-16L18.31-16Q20.44-11.69 24.88-9.03Q29.31-6.38 34.44-6.38L34.44-6.38Q38.31-6.38 41.78-7.91Q45.25-9.44 47.63-12.19L47.63-12.19Q49.38-14.13 51.44-18.81L51.44-18.81L60.56-16.88Q57.44-8.13 50.41-3.22Q43.38 1.69 33.81 1.69L33.81 1.69Q20.88 1.69 12.88-7.41Q4.88-16.50 4.88-31.25ZM16.25-38L16.25-38L50.94-38Q50.88-42.38 50.09-45.09Q49.31-47.81 47.38-50.56L47.38-50.56Q42.69-57.19 34.31-57.19Q25.94-57.19 20.75-50.56L20.75-50.56Q18.69-48 17.72-45.28Q16.75-42.56 16.25-38Z"/>,<path id="g-102" d="M11.50-55.44L0.38-55.44L0.38-63.13L11.50-63.13Q11.69-69 12.09-71.72Q12.50-74.44 13.56-77.19L13.56-77.19Q15.19-81.81 19.69-84.50Q24.19-87.19 30.31-87.19L30.31-87.19Q33.13-87.19 39.69-86.25L39.69-86.25L39.69-78.31Q35.69-79.25 33.81-79.25L33.81-79.25Q24.13-79.25 21.75-73.19L21.75-73.19Q21-71.13 20.81-69.66Q20.63-68.19 20.63-63.13L20.63-63.13L35.94-63.13L35.94-55.44L20.63-55.44L20.63 0L11.50 0L11.50-55.44Z"/>,<path id="g-103" d="M3.19 7.19L3.19 7.19Q3.19 2.63 5.50-0.41Q7.81-3.44 12.81-5.38L12.81-5.38Q9.38-7.75 8-10.03Q6.63-12.31 6.63-15.63L6.63-15.63Q6.63-19.44 8.59-21.94Q10.56-24.44 15.38-26.75L15.38-26.75Q10.94-30.63 9.06-34.47Q7.19-38.31 7.19-43.50L7.19-43.50Q7.19-52.75 14.03-58.88Q20.88-65 31.25-65L31.25-65Q38.13-65 44.19-62.06L44.19-62.06Q45.06-67.38 48.13-70.25L48.13-70.25Q49.75-71.88 52.03-72.47Q54.31-73.06 58.75-73.06L58.75-73.06Q60.06-73.06 61.31-72.94L61.31-72.94L61.31-65.13Q60.81-65.13 60.38-65.13L60.38-65.13Q54.88-65.13 52.50-63.75L52.50-63.75Q49.88-62.19 49.25-58L49.25-58Q55.31-50.88 55.31-42.75L55.31-42.75Q55.31-33.56 48.50-27.66Q41.69-21.75 31.13-21.75L31.13-21.75Q28.63-21.75 26.75-22.13L26.75-22.13Q22.94-22.81 22.63-22.81L22.63-22.81Q20.13-22.81 18.06-20.94Q16-19.06 16-16.75L16-16.75Q16-13.75 19.19-12.19L19.19-12.19Q20.88-11.44 23.94-11.09Q27-10.75 35.56-10.50L35.56-10.50Q45.31-10.25 49.59-9.50Q53.88-8.75 56.81-6.81L56.81-6.81Q63.75-2.31 63.75 5.75L63.75 5.75Q63.75 14.69 55.75 19.25Q47.75 23.81 32 23.81L32 23.81Q17.88 23.81 10.53 19.56Q3.19 15.31 3.19 7.19ZM12.69 6.13L12.69 6.13Q12.69 9.38 15.13 11.50L15.13 11.50Q17.75 13.63 22.50 14.94Q27.25 16.25 32.75 16.25L32.75 16.25Q40.69 16.25 47.75 13.94L47.75 13.94Q54.38 11.75 54.38 6.13L54.38 6.13Q54.38 1.94 50.06 0.13L50.06 0.13Q47.75-0.94 45.44-1.22Q43.13-1.50 34.81-1.69L34.81-1.69Q24.88-1.88 19.56-2.56L19.56-2.56Q15.69-0.63 14.19 1.28Q12.69 3.19 12.69 6.13ZM17.25-43.13L17.25-43.13Q17.25-36.88 21.16-33.09Q25.06-29.31 31.38-29.31L31.38-29.31Q37.50-29.31 41.47-33.13Q45.44-36.94 45.44-42.88L45.44-42.88Q45.44-49.06 41.47-53.13Q37.50-57.19 31.50-57.19L31.50-57.19Q25.25-57.19 21.25-53.22Q17.25-49.25 17.25-43.13Z"/>,<path id="g-104" d="M19.69 0L9.88 0L9.88-85.38L19.69-85.38L19.69-51.44Q23.50-58.63 28.06-61.75Q32.63-64.88 39.06-64.88L39.06-64.88Q44.31-64.88 48.59-62.72Q52.88-60.56 55.56-56.56L55.56-56.56Q57.94-53.13 58.66-49.66Q59.38-46.19 59.38-38.25L59.38-38.25L59.38 0L49.56 0L49.56-38.25Q49.56-46.31 48.25-49.69L48.25-49.69Q47-52.88 43.97-54.78Q40.94-56.69 37.25-56.69L37.25-56.69Q33.94-56.69 30.63-55.06Q27.31-53.44 24.94-50.69L24.94-50.69Q19.69-44.63 19.69-34.06L19.69-34.06L19.69 0Z"/>,<path id="g-105" d="M19.94-74.50L9.38-74.50L9.38-85.38L19.94-85.38L19.94-74.50ZM19.56 0L9.75 0L9.75-63.13L19.56-63.13L19.56 0Z"/>,<path id="g-106" d="M-7.81 20.63L-7.81 12.81Q-3.56 13.81-0.63 13.81L-0.63 13.81Q4.88 13.81 7.31 11.06Q9.75 8.31 9.75 2.06L9.75 2.06L9.75-63.88L19.56-63.88L19.56 2.06Q19.56 21.88 1.13 21.88L1.13 21.88Q-1.75 21.88-7.81 20.63L-7.81 20.63ZM20.13-74.50L8.94-74.50L8.94-85.38L20.13-85.38L20.13-74.50Z"/>,<path id="g-107" d="M19.69 0L9.88 0L9.88-85.38L19.69-85.38L19.69-30.75L49-63.13L59.50-63.13L39.81-40.81L62.06 0L51.81 0L33.44-35.19L19.69-19.44L19.69 0Z"/>,<path id="g-108" d="M19.69 0L9.88 0L9.88-85.38L19.69-85.38L19.69 0Z"/>,<path id="g-109" d="M19.19 0L9.88 0L9.88-63.13L18.31-63.13L18.31-50.94Q25.44-64.75 37.75-64.75L37.75-64.75Q44.31-64.75 48.97-60.81Q53.63-56.88 55.44-49.69L55.44-49.69Q58.63-57.06 63.72-60.91Q68.81-64.75 75.38-64.75L75.38-64.75Q80.31-64.75 84.66-62.34Q89-59.94 91.50-55.81L91.50-55.81Q93.19-53.06 93.81-49.56Q94.44-46.06 94.44-39.19L94.44-39.19L94.44 0L84.88 0L84.88-39.19Q84.88-44.31 84.50-46.44Q84.13-48.56 82.81-50.69L82.81-50.69Q81.31-53.25 78.50-54.78Q75.69-56.31 72.69-56.31L72.69-56.31Q66.56-56.31 61.44-50.81L61.44-50.81Q58.75-47.69 57.66-44.28Q56.56-40.88 56.56-35.56L56.56-35.56L56.56 0L47.13 0L47.13-41.50Q47.13-48.50 44.19-52.13L44.19-52.13Q40.38-56.69 34.69-56.69L34.69-56.69Q28.19-56.69 23.69-51.19Q19.19-45.69 19.19-37.75L19.19-37.75L19.19 0Z"/>,<path id="g-110" d="M19.69 0L9.88 0L9.88-63.13L18.94-63.13L18.94-51.44Q23.81-58.94 28.25-61.84Q32.69-64.75 39.19-64.75L39.19-64.75Q45.13-64.75 49.91-61.84Q54.69-58.94 57.38-53.75L57.38-53.75Q59.63-49.50 59.63-36.50L59.63-36.50L59.63 0L50.44 0L50.44-40.56Q50.44-48.25 47.06-52.28Q43.69-56.31 37.38-56.31L37.38-56.31Q29.75-56.31 24.72-50.16Q19.69-44 19.69-34.69L19.69-34.69L19.69 0Z"/>,<path id="g-111" d="M4.88-31.75L4.88-31.75Q4.88-46.31 12.84-55.53Q20.81-64.75 33.44-64.75L33.44-64.75Q46.25-64.75 53.91-55.56Q61.56-46.38 61.56-30.88L61.56-30.88Q61.56-16.69 53.34-7.50Q45.13 1.69 32.38 1.69L32.38 1.69Q18.88 1.69 11.25-9.38L11.25-9.38Q4.88-18.56 4.88-31.75ZM15.63-31.88L15.63-31.88Q15.63-19.75 20.22-13.06Q24.81-6.38 33.13-6.38L33.13-6.38Q41.38-6.38 46.09-13.06Q50.81-19.75 50.81-31.50L50.81-31.50Q50.81-43.56 46.31-49.81L46.31-49.81Q44-53 40.44-54.84Q36.88-56.69 33-56.69L33-56.69Q29.19-56.69 25.59-54.81Q22-52.94 19.94-49.81L19.94-49.81Q15.63-43.50 15.63-31.88Z"/>,<path id="g-112" d="M19.69 21.38L9.88 21.38L9.88-63.13L18.69-63.13L18.69-50.81Q22.44-58.13 27.19-61.44Q31.94-64.75 38.63-64.75L38.63-64.75Q49.75-64.75 56.69-55.56Q63.63-46.38 63.63-31.63L63.63-31.63Q63.63-16.75 56.63-7.53Q49.63 1.69 38.38 1.69L38.38 1.69Q32.25 1.69 28-0.91Q23.75-3.50 19.69-9.63L19.69-9.63L19.69 21.38ZM19.69-40.56L19.69-22.94Q20.88-15.81 25.66-11.09Q30.44-6.38 36.50-6.38L36.50-6.38Q39.63-6.38 42.84-8.03Q46.06-9.69 48.13-12.31L48.13-12.31Q52.88-18.63 52.88-31L52.88-31Q52.88-42.88 48.53-49.53Q44.19-56.19 36.50-56.19L36.50-56.19Q30.63-56.19 26.13-52.03Q21.63-47.88 19.69-40.56L19.69-40.56Z"/>,<path id="g-113" d="M4.88-31.13L4.88-31.13Q4.88-46.19 12.09-55.53Q19.31-64.88 30.88-64.88L30.88-64.88Q37.44-64.88 41.50-62.31Q45.56-59.75 49.94-52.75L49.94-52.75L53.75-64L58.75-64L58.75 21.38L48.88 21.38L48.88-11.50Q42.50 1.69 29.81 1.69L29.81 1.69Q18.56 1.69 11.72-7.34Q4.88-16.38 4.88-31.13ZM15.63-31.50L15.63-31.50Q15.63-20.13 20-13.47Q24.38-6.81 31.88-6.81L31.88-6.81Q36.19-6.81 39.78-9.13Q43.38-11.44 45.69-15.63L45.69-15.63Q47.38-18.56 48.13-21.16Q48.88-23.75 48.88-28.06L48.88-28.06L48.88-36.50Q48.31-42.38 47.22-45.50Q46.13-48.63 43.75-51.31L43.75-51.31Q41.44-53.81 38.31-55.25Q35.19-56.69 32-56.69L32-56.69Q24.69-56.69 20.16-49.75Q15.63-42.81 15.63-31.50Z"/>,<path id="g-114" d="M19.69 0L9.88 0L9.88-63.13L18.44-63.13L18.44-48.38Q22.19-56.06 24.94-59.38L24.94-59.38Q27.06-61.88 30.41-63.38Q33.75-64.88 37.38-64.88L37.38-64.88Q38.06-64.88 40.94-64.63L40.94-64.63L40.94-55.31Q40-55.38 39.06-55.38L39.06-55.38Q31.38-55.38 25.88-49.75L25.88-49.75Q19.75-43.50 19.69-33.44L19.69-33.44L19.69 0Z"/>,<path id="g-115" d="M1.25-16.38L1.25-16.38L10.63-18.31Q12-13.38 14.75-11.13L14.75-11.13Q17.44-8.94 21.56-7.66Q25.69-6.38 30.19-6.38L30.19-6.38Q36.81-6.38 40.94-9.22Q45.06-12.06 45.06-16.63L45.06-16.63Q45.06-20.44 42.28-22.94Q39.50-25.44 34.19-26.38L34.19-26.38L20.88-28.81Q12.81-30.25 8.31-34.88Q3.81-39.50 3.81-46.19L3.81-46.19Q3.81-54.56 10.34-59.66Q16.88-64.75 27.63-64.75L27.63-64.75Q37.50-64.75 43.84-60.69Q50.19-56.63 52.50-48.75L52.50-48.75L43.50-46.88Q39.13-56.69 27.38-56.69L27.38-56.69Q21.25-56.69 17.53-54.13Q13.81-51.56 13.81-47.38L13.81-47.38Q13.81-40.19 23.69-38.50L23.69-38.50L36.13-36.38Q55.31-32.94 55.31-17.69L55.31-17.69Q55.31-9.06 48.13-3.69Q40.94 1.69 29.31 1.69L29.31 1.69Q16 1.69 7.81-5.38L7.81-5.38Q5.31-7.50 3.88-9.91Q2.44-12.31 1.25-16.38Z"/>,<path id="g-116" d="M11-55.44L-0.13-55.44L-0.13-63.13L11-63.13L11.38-79L20.63-79.75L20.63-63.13L34.81-63.13L34.81-55.44L20.63-55.44L20.63-15.88Q20.63-6 30.88-6L30.88-6Q33.88-6 38.38-6.81L38.38-6.81L38.38 1Q32.69 1.81 29.06 1.81L29.06 1.81Q20.13 1.81 15.56-3.06Q11-7.94 11-17.44L11-17.44L11-55.44Z"/>,<path id="g-117" d="M9.88-22.81L9.88-22.81L9.88-63.13L19.69-63.13L19.69-22.81Q19.69-14.56 22.94-10.75L22.94-10.75Q26.56-6.38 32.13-6.38L32.13-6.38Q39.44-6.38 44.56-12.56Q49.69-18.75 49.69-27.50L49.69-27.50L49.69-63.13L59.50-63.13L59.50 0L50.69 0L50.69-12.06Q43.75 1.69 30.56 1.69L30.56 1.69Q20.94 1.69 15.41-4.88Q9.88-11.44 9.88-22.81Z"/>,<path id="g-118" d="M24.06 0L1.56-63.13L12.44-63.13L29.94-11.75L47.38-63.13L56.06-63.13L34.31 0L24.06 0Z"/>,<path id="g-119" d="M21.38 0L2.44-63.13L12.31-63.13L26-16.13L39.19-63.13L46.31-63.13L60.44-15.88L74.63-63.13L82.56-63.13L64.38 0L56.44 0L42.38-46.88L29.44 0L21.38 0Z"/>,<path id="g-120" d="M10 0L0.38 0L21.63-32.75L2.44-63.13L13.69-63.13L27.25-41.63L40.94-63.13L50.44-63.13L32-34.81L53.75 0L42.38 0L26.38-25.63L10 0Z"/>,<path id="g-121" d="M22.50-1.13L0.63-63.13L10.63-63.13L27.50-15.63L44.81-63.13L53.13-63.13L27.75 7.44Q24.50 16.25 19.06 20.13L19.06 20.13Q15.81 22.50 9.19 22.50L9.19 22.50Q6.25 22.50 1.81 21.50L1.81 21.50L1.81 13.69Q6.25 14.56 8.31 14.56L8.31 14.56Q15 14.56 18.31 9.19L18.31 9.19Q20.19 6.13 22.50-1.13L22.50-1.13Z"/>,<path id="g-122" d="M50.69 0L4.25 0L4.25-7.56L37.75-55.44L6.81-55.44L6.81-63.13L50.69-63.13L50.69-57.75L16-7.56L50.69-7.56L50.69 0Z"/>,<path id="g-123" d="M7.44-29.06L7.44-29.06L7.44-35.19Q11.38-36.25 13.06-38.84Q14.75-41.44 14.75-46.44L14.75-46.44L14.75-68.63Q14.75-77.44 18.91-81.41Q23.06-85.38 32.38-85.38L32.38-85.38L35.06-85.38L35.06-78.75Q28.19-78.69 25.75-76.34Q23.31-74 23.31-67.56L23.31-67.56L23.31-45.94Q23.31-40.13 21.59-37.09Q19.88-34.06 15.38-31.88L15.38-31.88Q19.75-29.75 21.53-26.56Q23.31-23.38 23.31-17.56L23.31-17.56L23.31 3.19Q23.31 10 25.66 12.34Q28 14.69 35.06 14.75L35.06 14.75L35.06 21.38L32.38 21.38Q22.75 21.38 18.75 17.22Q14.75 13.06 14.75 3.06L14.75 3.06L14.75-17.44Q14.75-22.75 13.09-25.38Q11.44-28 7.44-29.06Z"/>,<path id="g-124" d="M36.88 21.38L27.25 21.38L27.25-85.38L36.88-85.38L36.88 21.38Z"/>,<path id="g-125" d="M2.56 21.38L2.56 14.75Q9.44 14.69 11.88 12.34Q14.31 10 14.31 3.56L14.31 3.56L14.31-18.06Q14.31-23.88 16.03-26.91Q17.75-29.94 22.25-32.13L22.25-32.13Q17.88-34.25 16.09-37.44Q14.31-40.63 14.31-46.44L14.31-46.44L14.31-67.19Q14.31-74 11.97-76.34Q9.63-78.69 2.56-78.75L2.56-78.75L2.56-85.38L5.25-85.38Q14.88-85.38 18.91-81.22Q22.94-77.06 22.94-67.06L22.94-67.06L22.94-46.56Q22.94-41.25 24.56-38.63Q26.19-36 30.19-34.94L30.19-34.94L30.19-28.81Q26.25-27.75 24.59-25.16Q22.94-22.56 22.94-17.56L22.94-17.56L22.94 4.63Q22.94 13.44 18.75 17.41Q14.56 21.38 5.25 21.38L5.25 21.38L2.56 21.38Z"/>,<path id="g-126" d="M12.44-32.88L6.81-36.63Q10.56-44.63 14.59-48.03Q18.63-51.44 24.31-51.44L24.31-51.44Q29.63-51.44 38.63-47.13L38.63-47.13Q47.19-43.13 51.06-43.13L51.06-43.13Q54.63-43.13 57.16-45Q59.69-46.88 62.56-51.69L62.56-51.69L68.38-48.25Q64.81-41.44 61.19-38L61.19-38Q59.25-36.19 56.28-35Q53.31-33.81 50.69-33.81L50.69-33.81Q47.75-33.81 44.41-34.91Q41.06-36 34.81-38.94L34.81-38.94Q27.81-42.25 23.56-42.25L23.56-42.25Q20.38-42.25 17.84-40.13Q15.31-38 12.44-32.88L12.44-32.88Z"/>,<path id="g-13" d=""/>,<path id="g-160" d=""/>,<path id="g-161" d="M24.56 21.38L9.88 21.38L14.75-42.75L19.94-42.75L24.56 21.38ZM23.81-49.94L10.75-49.94L10.75-63.13L23.81-63.13L23.81-49.94Z"/>,<path id="g-162" d="M12.31-43.50L12.31-43.50Q12.31-50.88 14.63-57.09Q16.94-63.31 21.25-67.31L21.25-67.31Q23.94-69.81 26.91-71.19Q29.88-72.56 34.69-73.38L34.69-73.38L34.69-88.94L41.75-88.94L41.75-73.38Q49.63-72.56 55.09-67.22Q60.56-61.88 61.94-53.88L61.94-53.88L53.38-52.25Q52.31-57.81 48.97-61.78Q45.63-65.75 41.75-66.06L41.75-66.06L41.75-21.75Q46.13-22.50 49.28-26.16Q52.44-29.81 53.38-35.19L53.38-35.19L61.94-33.94Q59.94-25.13 54.97-20.22Q50-15.31 41.75-14.06L41.75-14.06L41.75 3.56L34.69 3.56L34.69-14.06Q30-14.88 27.16-16.16Q24.31-17.44 21.63-19.81L21.63-19.81Q12.31-28.38 12.31-43.50ZM22.13-43.38L22.13-43.38Q22.13-25.31 34.69-21.75L34.69-21.75L34.69-65.81Q28.81-64.63 25.47-58.69Q22.13-52.75 22.13-43.38Z"/>,<path id="g-163" d="M51.56 0L-0.25 0L-0.25-9.19Q1.88-9.38 2.81-9.38L2.81-9.38Q9.31-9.44 12.69-10.50Q16.06-11.56 19.19-14.44L19.19-14.44Q22.06-17.19 23.31-20.41Q24.56-23.63 24.56-28.31L24.56-28.31Q24.56-32.38 23.44-40.56L23.44-40.56L9.75-40.44L9.75-47.88L22.63-47.88Q21.50-54.94 21.50-59.88L21.50-59.88Q21.50-71.88 28-79.47Q34.50-87.06 44.81-87.06L44.81-87.06Q51.06-87.06 55.91-84.28Q60.75-81.50 65.25-75.38L65.25-75.38L58.25-70Q54.44-74.88 51.66-76.66Q48.88-78.44 45.31-78.44L45.31-78.44Q39.81-78.44 36.22-74.19Q32.63-69.94 32.63-63.50L32.63-63.50Q32.63-59.31 33.44-52.63L33.44-52.63L33.94-47.88L52.25-47.88L52.25-40.44L34.81-40.56Q35.19-33.81 35.19-31.75L35.19-31.75Q35.19-24.06 32.88-18.94Q30.56-13.81 25.19-9.38L25.19-9.38L45.19-9.38Q53.56-9.38 58.03-11.50Q62.50-13.63 65.56-19.06L65.56-19.06L73.75-13.81Q70.44-7.19 64.69-3.59Q58.94 0 51.56 0L51.56 0Z"/>,<path id="g-164" d="M18.56-64.38L6.25-76.69L12.06-82.44L24.31-70.13Q29.94-73.94 33.84-75.31Q37.75-76.69 42.75-76.69Q47.75-76.69 51.56-75.34Q55.38-74 60.94-70.25L60.94-70.25L73.19-82.44L79-76.69L66.69-64.50Q70.44-58.75 71.75-54.97Q73.06-51.19 73.06-46.31Q73.06-41.44 71.75-37.66Q70.44-33.88 66.81-28.31L66.81-28.31L79.13-16L73.50-10.25L61.19-22.50Q56-18.94 51.94-17.53Q47.88-16.13 42.88-16.13L42.88-16.13Q38.13-16.13 34.16-17.47Q30.19-18.81 24.44-22.38L24.44-22.38L12.19-10.25L6.50-16L18.69-28.19Q15.25-33.06 13.78-37.25Q12.31-41.44 12.31-46.44L12.31-46.44Q12.31-51.31 13.69-55.28Q15.06-59.25 18.56-64.38L18.56-64.38ZM21.13-46.31L21.13-46.31Q21.13-37.44 27.47-31.06Q33.81-24.69 42.63-24.69L42.63-24.69Q51.50-24.69 57.88-31.03Q64.25-37.38 64.25-46.31L64.25-46.31Q64.25-55.19 57.94-61.66Q51.63-68.13 43-68.13L43-68.13Q33.75-68.13 27.44-61.81Q21.13-55.50 21.13-46.31Z"/>,<path id="g-165" d="M22.50-52.88L3.69-85.38L16.25-85.38L38.94-46.06L61.69-85.38L71.44-85.38L52.75-52.88L68.50-52.88L68.50-45.56L48.38-45.56L42.88-35.69L68.50-35.56L68.50-28.19L42.75-28.19L42.75 0L32.50 0L32.50-28.19L6.63-28.19L6.63-35.56L32.38-35.69L26.75-45.56L6.63-45.56L6.63-52.88L22.50-52.88Z"/>,<path id="g-167" d="M8.44 4.50L8.44 4.50L19.44 2.94Q20.81 5.81 21.91 7.31Q23 8.81 24.94 10.38L24.94 10.38Q30.94 15 38.81 15L38.81 15Q46.31 15 51.44 11.09Q56.56 7.19 56.56 1.44L56.56 1.44Q56.56-2.94 53.31-5.94Q50.06-8.94 43.38-10.75L43.38-10.75L30.44-14.19Q20.38-16.88 15.75-21.31Q11.13-25.75 11.13-32.63L11.13-32.63Q11.13-38.31 13.91-42.53Q16.69-46.75 23.19-51.06L23.19-51.06Q17.75-54.31 15.34-58.19Q12.94-62.06 12.94-67.56L12.94-67.56Q12.94-76.50 19.50-81.84Q26.06-87.19 37-87.19L37-87.19Q47.88-87.19 55.44-81.44L55.44-81.44Q58.25-79.38 59.88-76.94Q61.50-74.50 62.88-70.50L62.88-70.50L53.38-69.38Q51-74.94 47-77.47Q43-80 36.75-80Q30.50-80 26.50-76.94Q22.50-73.88 22.50-69.13L22.50-69.13Q22.50-59.88 37.75-55.56L37.75-55.56L49.25-52.38Q56.56-50.38 60.72-45.66Q64.88-40.94 64.88-34.81L64.88-34.81Q64.88-30.19 62.53-26.28Q60.19-22.38 54.63-17.69L54.63-17.69Q66.81-12 66.81-0.13L66.81-0.13Q66.81 9.88 58.63 16.47Q50.44 23.06 38 23.06L38 23.06Q24.75 23.06 16.38 16L16.38 16Q13.56 13.63 11.88 11.19Q10.19 8.75 8.44 4.50ZM21-35.56L21-35.56Q21-31.38 24.25-28.47Q27.50-25.56 34.56-23.56L34.56-23.56L46.88-20.13Q51.13-22.31 53.41-25.44Q55.69-28.56 55.69-32.13L55.69-32.13Q55.69-35.75 52.63-38.97Q49.56-42.19 44.56-43.75L44.56-43.75L30.75-48Q21-42.75 21-35.56Z"/>,<path id="g-171" d="M15.88-15L5.13-33.25L15.88-50.94L21.50-50.94L14.88-33.25L21.50-15L15.88-15ZM32.38-15L21.50-33.25L32.25-50.94L38-50.94L31.38-33.25L38-15L32.38-15Z"/>,<path id="g-172" d="M55.69-25.50L9.88-25.50L9.88-34.06L65.25-34.06L65.25 0L55.69 0L55.69-25.50Z"/>,<path id="g-173" d="M30.19-28.19L1.94-28.19L1.94-35.81L30.19-35.81L30.19-28.19Z"/>,<path id="g-177" d="M67.44 2.56L7.69 2.56L7.69-6.13L67.44-6.13L67.44 2.56ZM32.88-38.38L7.69-38.38L7.69-47.13L32.88-47.13L32.88-73.38L42.25-73.38L42.25-47.13L67.44-47.13L67.44-38.38L42.25-38.38L42.25-12.19L32.88-12.19L32.88-38.38Z"/>,<path id="g-178" d="M12.06-68.88L5-70.94Q9-86.38 24.56-86.38L24.56-86.38Q32.63-86.38 38-81.94Q43.38-77.50 43.38-70.81L43.38-70.81Q43.38-64.19 37.22-57.47Q31.06-50.75 15.38-40.19L15.38-40.19L43.50-40.19L43.50-34.19L5.13-34.19L5.13-39.94Q15.56-47.31 21.22-51.66Q26.88-56 30.41-59.53Q33.94-63.06 34.94-65.38Q35.94-67.69 35.94-70.63L35.94-70.63Q35.94-74.81 32.63-77.66Q29.31-80.50 24.44-80.50L24.44-80.50Q19.25-80.50 15.94-77.38Q12.63-74.25 12.06-68.88L12.06-68.88Z"/>,<path id="g-179" d="M3.19-46.19L3.19-46.19L10.25-48.38Q12-43.38 15.13-41.28Q18.25-39.19 24.19-39.19L24.19-39.19Q29.94-39.19 33.34-41.69Q36.75-44.19 36.75-48.38L36.75-48.38Q36.75-52.88 33.09-55.38Q29.44-57.88 22.94-57.88L22.94-57.88L16.38-57.88L16.38-63.63L22.94-63.63Q28.63-63.63 31.72-65.84Q34.81-68.06 34.81-72.06L34.81-72.06Q34.81-75.81 31.84-78.16Q28.88-80.50 24.19-80.50L24.19-80.50Q15.19-80.50 11.88-72.19L11.88-72.19L5.13-74Q7.81-80.31 12.59-83.34Q17.38-86.38 24.69-86.38L24.69-86.38Q32.38-86.38 37.38-82.44Q42.38-78.50 42.38-72.44L42.38-72.44Q42.38-68.50 40.09-65.50Q37.81-62.50 33.69-61.06L33.69-61.06Q38.69-59.88 41.56-56.53Q44.44-53.19 44.44-48.50L44.44-48.50Q44.44-41.69 38.72-37.41Q33-33.13 23.81-33.13L23.81-33.13Q8.38-33.13 3.19-46.19Z"/>,<path id="g-181" d="M22.50 21.38L12.69 21.38L12.69-63.13L22.50-63.13L22.50-27.63Q22.50-22.13 23.16-19.22Q23.81-16.31 25.63-13.56L25.63-13.56Q29.81-7.06 37.25-7.06L37.25-7.06Q41.19-7.06 44.47-8.94Q47.75-10.81 49.69-14.19L49.69-14.19Q52.50-18.88 52.50-28.56L52.50-28.56L52.50-63.13L62.31-63.13L62.31 0L53.38 0L53.38-9.88Q49.88-3.44 46.38-0.88Q42.88 1.69 37.50 1.69L37.50 1.69Q32.50 1.69 28.88-0.69Q25.25-3.06 22.50-8.19L22.50-8.19L22.50 21.38Z"/>,<path id="g-182" d="M4.63-64.13L4.63-64.13Q4.63-70.44 7.28-75.50Q9.94-80.56 14.56-82.94L14.56-82.94Q19.38-85.38 31.50-85.38L31.50-85.38L67.81-85.38L67.81-79.38L59.25-79.38L59.25 21.38L53 21.38L53-79.38L47-79.38L47 21.38L40.69 21.38L40.69-45.31L31.38-45.31Q19.13-45.31 14.31-47.50L14.31-47.50Q4.63-52.06 4.63-64.13ZM15-65L15-65Q15-57.69 18.91-54.50Q22.81-51.31 31.88-51.31L31.88-51.31L40.69-51.31L40.69-79.38L33.81-79.38Q26.88-79.38 23.66-78.59Q20.44-77.81 18.44-75.63L18.44-75.63Q15-72.19 15-65Z"/>,<path id="g-183" d="M13.94-25.50L0-25.50L0-39.44L13.94-39.44L13.94-25.50Z"/>,<path id="g-185" d="M9.63-66.56L9.63-66.56L9.63-73.88Q19.69-78.94 26-86.38L26-86.38L31.38-86.38L31.38-39.69L44.44-39.69L44.44-34.19L10-34.19L10-39.69L24.06-39.69L24.06-77.19Q17.25-70.56 9.63-66.56Z"/>,<path id="g-187" d="M11.75-15L6-15L12.69-32.63L6-50.94L11.75-50.94L22.50-32.63L11.75-15ZM28.19-15L22.50-15L29.19-32.63L22.50-50.94L28.19-50.94L38.94-32.63L28.19-15Z"/>,<path id="g-188" d="M6.38-66.56L6.38-66.56L6.38-73.88Q16.56-79 22.81-86.38L22.81-86.38L28.19-86.38L28.19-39.69L41.19-39.69L41.19-34.19L6.81-34.19L6.81-39.69L20.88-39.69L20.88-77.19Q14.13-70.63 6.38-66.56ZM33.56 0L25.75 0L77.44-85.38L85.13-85.38L33.56 0ZM91.63-11.88L65.69-11.88L65.69-16.75L90-52.25L98.94-52.25L98.94-17.81L107.63-17.81L107.63-11.88L98.94-11.88L98.94 0L91.63 0L91.63-11.88ZM89.75-41.88L73.75-17.81L91.63-17.81L91.63-41.19L91.63-45.06Q90.56-43 89.75-41.88L89.75-41.88Z"/>,<path id="g-189" d="M5.50-66.56L5.50-66.56L5.50-73.88Q15.56-78.94 21.88-86.38L21.88-86.38L27.25-86.38L27.25-39.69L40.31-39.69L40.31-34.19L5.88-34.19L5.88-39.69L19.94-39.69L19.94-77.19Q13.13-70.56 5.50-66.56ZM32.63 0L24.81 0L76.56-85.38L84.25-85.38L32.63 0ZM75.88-34.69L68.75-36.63Q72.75-52.25 88.31-52.25L88.31-52.25Q96.38-52.25 101.81-47.75Q107.25-43.25 107.25-36.63L107.25-36.63Q107.25-30.06 101-23.22Q94.75-16.38 79.13-6L79.13-6L107.38-6L107.38 0L68.88 0L68.88-5.75Q82.56-15.50 88.84-20.66Q95.13-25.81 97.41-29.22Q99.69-32.63 99.69-36.50L99.69-36.50Q99.69-40.69 96.38-43.50Q93.06-46.31 88.19-46.31L88.19-46.31Q83-46.31 79.66-43.19Q76.31-40.06 75.88-34.69L75.88-34.69Z"/>,<path id="g-190" d="M2.56-46.19L2.56-46.19L9.63-48.38Q11.38-43.38 14.50-41.28Q17.63-39.19 23.56-39.19L23.56-39.19Q29.31-39.19 32.72-41.69Q36.13-44.19 36.13-48.38L36.13-48.38Q36.13-52.88 32.44-55.38Q28.75-57.88 22.25-57.88L22.25-57.88L15.75-57.88L15.75-63.63L22.25-63.63Q27.94-63.63 31.06-65.84Q34.19-68.06 34.19-72.06L34.19-72.06Q34.19-75.81 31.22-78.16Q28.25-80.50 23.56-80.50L23.56-80.50Q14.56-80.50 11.25-72.19L11.25-72.19L4.50-74Q7.19-80.31 11.97-83.34Q16.75-86.38 24.06-86.38L24.06-86.38Q31.75-86.38 36.75-82.44Q41.75-78.50 41.75-72.44L41.75-72.44Q41.75-68.50 39.44-65.50Q37.13-62.50 33-61.06L33-61.06Q38-59.88 40.88-56.53Q43.75-53.19 43.75-48.50L43.75-48.50Q43.75-41.69 38.06-37.41Q32.38-33.13 23.19-33.13L23.19-33.13Q7.75-33.13 2.56-46.19ZM37.88 0L30.06 0L81.69-85.38L89.50-85.38L37.88 0ZM93.44-11.88L67.31-11.88L67.31-16.75L91.75-52.25L100.75-52.25L100.75-17.81L109.31-17.81L109.31-11.88L100.75-11.88L100.75 0L93.44 0L93.44-11.88ZM91.50-41.88L75.38-17.81L93.44-17.81L93.44-41.19L93.44-45.06L91.50-41.88Z"/>,<path id="g-191" d="M5.13-1.25L5.13-1.25Q5.13-8.38 8.97-13.72Q12.81-19.06 21.13-23.56L21.13-23.56Q28.44-27.50 29.91-29.47Q31.38-31.44 31.25-37.13L31.25-37.13Q31.13-39.69 31.13-42.75L31.13-42.75L40.19-42.75Q40.06-41.88 40.06-40.69L40.06-40.69L40.06-34.19Q40.06-26.13 35.94-22L35.94-22Q34.56-20.63 30.19-18.19L30.19-18.19L25.38-15.50Q20.94-13 18.59-9.22Q16.25-5.44 16.25-0.88L16.25-0.88Q16.25 5.75 21.16 10.03Q26.06 14.31 33.56 14.31L33.56 14.31Q37.75 14.31 41.66 12.56Q45.56 10.81 47.88 7.94L47.88 7.94Q49.69 5.69 50.72 3.13Q51.75 0.56 52.88-4.13L52.88-4.13L62.06-2.19Q61 3.94 59.34 7.59Q57.69 11.25 54.38 14.75L54.38 14.75Q46.63 23.06 33 23.06L33 23.06Q20.63 23.06 12.88 16.31Q5.13 9.56 5.13-1.25ZM41.75-50.81L29.06-50.81L29.06-63.13L41.75-63.13L41.75-50.81Z"/>,<path id="g-215" d="M18.31-17.25L12.19-23.44L31.50-42.75L12.19-62.06L18.31-68.25L37.63-48.88L56.81-68.25L63-62.06L43.63-42.75L63-23.44L56.81-17.25L37.63-36.63L18.31-17.25Z"/>,<path id="g-247" d="M67.44-38.38L7.69-38.38L7.69-47.13L67.44-47.13L67.44-38.38ZM33.25-19.94Q31.50-21.69 31.50-24.19Q31.50-26.69 33.28-28.44Q35.06-30.19 37.63-30.19L37.63-30.19Q40-30.19 41.75-28.38Q43.50-26.56 43.50-24.19L43.50-24.19Q43.50-21.69 41.75-19.94Q40-18.19 37.50-18.19Q35-18.19 33.25-19.94ZM33.25-57.69Q31.50-59.44 31.50-61.94Q31.50-64.44 33.28-66.19Q35.06-67.94 37.63-67.94L37.63-67.94Q40-67.94 41.75-66.13Q43.50-64.31 43.50-61.94L43.50-61.94Q43.50-59.44 41.75-57.69Q40-55.94 37.50-55.94Q35-55.94 33.25-57.69Z"/>,<path id="g-32" d=""/>,<path id="g-33" d="M14.44-21.25L9.88-85.38L24.56-85.38L19.69-21.25L14.44-21.25ZM23.81 0L10.75 0L10.75-13.19L23.81-13.19L23.81 0Z"/>,<path id="g-34" d="M8.56-52.38L6.63-85.38L16.63-85.38L14.75-52.38L8.56-52.38ZM25.75-52.38L23.94-85.38L33.94-85.38L32-52.38L25.75-52.38Z"/>,<path id="g-35" d="M17.69-27.13L3.94-27.13L5.38-34.81L18.94-34.81L22.13-52.63L8.44-52.63L9.88-60.31L23.56-60.31L27.88-85.38L36.13-85.38L31.63-60.31L49.69-60.31L54.13-85.38L62.19-85.38L57.75-60.31L71.06-60.31L69.63-52.63L56.56-52.63L53.38-34.81L66.44-34.81L65.13-27.13L51.94-27.13L47.25 0L39.06 0L43.88-27.13L25.75-27.13L20.88 0L12.81 0L17.69-27.13ZM30.31-52.63L27.13-34.81L45.19-34.81L48.25-52.63L30.31-52.63Z"/>,<path id="g-36" d="M6-22.25L6-22.25L14.44-25.63Q16.75-19.19 21.50-15.44Q26.25-11.69 32.75-11.25L32.75-11.25L32.75-40.31Q26.75-41.88 23.91-42.91Q21.06-43.94 18.31-45.56L18.31-45.56Q14.19-47.94 11.84-52.31Q9.50-56.69 9.50-61.94L9.50-61.94Q9.50-67.81 12.41-72.69Q15.31-77.56 20.50-80.25L20.50-80.25Q25.31-82.69 32.75-83.81L32.75-83.81L32.75-94.19L40.31-94.19L40.31-83.81Q49.75-83 55.66-78.97Q61.56-74.94 64.50-67.44L64.50-67.44L56.06-64.63Q54.44-69.56 50.34-72.41Q46.25-75.25 40.31-75.63L40.31-75.63L40.31-48.88Q46.56-47.44 49.44-46.56Q52.31-45.69 55.19-44.19L55.19-44.19Q60.13-41.63 63.16-36.50Q66.19-31.38 66.19-25.63L66.19-25.63Q66.19-19.75 63-14.44Q59.81-9.13 54.63-6.38L54.63-6.38Q51.75-4.88 48.78-4.13Q45.81-3.38 40.31-2.69L40.31-2.69L40.31 9.38L32.75 9.38L32.75-2.69Q11.69-5 6-22.25ZM22.25-71.66Q18.56-68.44 18.56-63.13Q18.56-57.81 22-54.66Q25.44-51.50 32.75-50.06L32.75-50.06L32.75-75.63Q25.94-74.88 22.25-71.66ZM40.31-38.50L40.31-11.25Q48-11.69 52.28-15.31Q56.56-18.94 56.56-24.81L56.56-24.81Q56.56-28 55.03-30.78Q53.50-33.56 50.81-35.19L50.81-35.19Q48.75-36.50 46.63-37.16Q44.50-37.81 40.31-38.50L40.31-38.50Z"/>,<path id="g-37" d="M4.75-64.13L4.75-64.13Q4.75-74.06 9.53-80.16Q14.31-86.25 22.13-86.25L22.13-86.25Q30.06-86.25 35-80.06Q39.94-73.88 39.94-63.88L39.94-63.88Q39.94-54.31 34.97-48.09Q30-41.88 22.38-41.88L22.38-41.88Q14.63-41.88 9.69-48.09Q4.75-54.31 4.75-64.13ZM11.38-64.38L11.38-64.38Q11.38-56.13 14.28-51.50Q17.19-46.88 22.50-46.88L22.50-46.88Q27.38-46.88 30.25-51.28Q33.13-55.69 33.13-63.25L33.13-63.25Q33.13-71.81 30.22-76.63Q27.31-81.44 22.13-81.44L22.13-81.44Q17-81.44 14.19-76.94Q11.38-72.44 11.38-64.38ZM24.31 0L16.38 0L68.13-85.38L75.88-85.38L24.31 0ZM52.50-21.38L52.50-21.38Q52.50-31.31 57.28-37.41Q62.06-43.50 69.88-43.50L69.88-43.50Q77.75-43.50 82.66-37.31Q87.56-31.13 87.56-21.13L87.56-21.13Q87.56-11.50 82.63-5.31Q77.69 0.88 70 0.88Q62.31 0.88 57.41-5.34Q52.50-11.56 52.50-21.38ZM59-21.63L59-21.63Q59-13.38 61.91-8.75Q64.81-4.13 70.13-4.13L70.13-4.13Q75.13-4.13 78-8.47Q80.88-12.81 80.88-20.50L80.88-20.50Q80.88-29.06 77.97-33.84Q75.06-38.63 69.75-38.63L69.75-38.63Q64.63-38.63 61.81-34.16Q59-29.69 59-21.63Z"/>,<path id="g-38" d="M5.50-23.69L5.50-23.69Q5.50-32.63 11.25-39.41Q17-46.19 27.63-49.81L27.63-49.81Q19.44-61.81 19.44-69.13L19.44-69.13Q19.44-76.94 24.88-82Q30.31-87.06 38.63-87.06L38.63-87.06Q47.38-87.06 52.88-82Q58.38-76.94 58.38-68.88L58.38-68.88Q58.38-61.69 54.31-56.66Q50.25-51.63 40.44-46.75L40.44-46.75L58.38-19.44Q62.94-25.31 65.69-31.75Q68.44-38.19 70-46.75L70-46.75L79.13-44.81Q77.88-37.19 73.16-27.59Q68.44-18 63.38-12.81L63.38-12.81Q65.81-10.25 67.81-9.34Q69.81-8.44 72.81-8.44L72.81-8.44Q74.44-8.44 80.63-8.94L80.63-8.94L80.63 0Q74.81 0.88 71.31 0.88L71.31 0.88Q67.19 0.88 64.75-0.44Q62.31-1.75 57.06-6.81L57.06-6.81Q51-2 46.09-0.16Q41.19 1.69 34.56 1.69L34.56 1.69Q22.06 1.69 13.78-5.53Q5.50-12.75 5.50-23.69ZM16.13-24.19L16.13-24.19Q16.13-16 21.34-11.19Q26.56-6.38 35.44-6.38L35.44-6.38Q40.69-6.38 44.38-7.88Q48.06-9.38 52.25-13.19L52.25-13.19L31.75-43.38Q23-39.44 19.56-35.22Q16.13-31 16.13-24.19ZM28.56-69.50L28.56-69.50Q28.56-66.56 29.94-63.53Q31.31-60.50 36.13-52.88L36.13-52.88Q41.31-55.81 43.38-57.19L43.38-57.19Q50.31-61.75 50.31-68.25L50.31-68.25Q50.31-72.88 47.06-76Q43.81-79.13 39.06-79.13L39.06-79.13Q34.56-79.13 31.56-76.38Q28.56-73.63 28.56-69.50Z"/>,<path id="g-39" d="M8.56-52.38L6.63-85.38L16.63-85.38L14.75-52.38L8.56-52.38Z"/>,<path id="g-40" d="M6.63-32L6.63-32Q6.63-60.19 24.94-85.38L24.94-85.38L31.50-85.38Q15.75-61 15.75-32.50L15.75-32.50Q15.75-18.06 19.59-5Q23.44 8.06 31.63 21.38L31.63 21.38L25.06 21.38Q6.63-2.56 6.63-32Z"/>,<path id="g-41" d="M5.88-85.38L5.88-85.38L12.44-85.38Q30.88-61.25 30.88-32L30.88-32Q30.88-3.81 12.56 21.38L12.56 21.38L6 21.38Q21.75-3 21.75-31.50L21.75-31.50Q21.75-46 17.88-59.09Q14-72.19 5.88-85.38Z"/>,<path id="g-42" d="M34.19-57.75L10-62.56L12.94-71.56L35.06-61.81L32.63-85.38L42.38-85.38L39.94-61.81L62.06-71.56L65-62.56L40.81-57.75L56.81-40.19L49-34.69L37.50-54.94L26-34.69L18.19-40.19L34.19-57.75Z"/>,<path id="g-43" d="M32.88-38.38L7.69-38.38L7.69-47.13L32.88-47.13L32.88-73.38L42.25-73.38L42.25-47.13L67.44-47.13L67.44-38.38L42.25-38.38L42.25-12.19L32.88-12.19L32.88-38.38Z"/>,<path id="g-44" d="M13.56 16L8.19 16L15.63 0L9.19 0L9.19-14.19L22.94-14.19L22.94-1.44L13.56 16Z"/>,<path id="g-45" d="M30.19-28.19L1.94-28.19L1.94-35.81L30.19-35.81L30.19-28.19Z"/>,<path id="g-46" d="M23.06 0L9.06 0L9.06-13.94L23.06-13.94L23.06 0Z"/>,<path id="g-47" d="M2.31 21.38L-6 21.38L45.44-85.38L53.88-85.38L2.31 21.38Z"/>,<path id="g-48" d="M5.25-42.88L5.25-42.88Q5.25-59 11.50-70.63L11.50-70.63Q20-87.06 37.25-87.06L37.25-87.06Q54.88-87.06 63.38-70.81L63.38-70.81Q69.88-58.13 69.88-42.25L69.88-42.25Q69.88-35.13 68.03-27.56Q66.19-20 63-14.06L63-14.06Q58.94-6.56 52.31-2.44Q45.69 1.69 37.63 1.69L37.63 1.69Q28.19 1.69 20.81-3.94Q13.44-9.56 9.34-19.72Q5.25-29.88 5.25-42.88ZM16.13-43.13L16.13-43.13Q16.13-25.94 21.84-16.28Q27.56-6.63 37.75-6.63L37.75-6.63Q50.19-6.63 55.44-20.13L55.44-20.13Q58.88-29.06 58.88-40.81L58.88-40.81Q58.88-55.88 54.50-66.19L54.50-66.19Q51.94-72.31 47.53-75.53Q43.13-78.75 37.25-78.75L37.25-78.75Q27.19-78.75 21.66-69.38Q16.13-60 16.13-43.13Z"/>,<path id="g-49" d="M71.56 0L11.75 0L11.75-7.94L37.38-7.94L37.38-73.88Q26.13-62.25 13.94-55.44L13.94-55.44L13.94-66.19Q30.25-74.69 39.94-87.06L39.94-87.06L47.63-87.06L47.63-7.94L71.56-7.94L71.56 0Z"/>,<path id="g-50" d="M67.19 0L6.63 0L6.63-8.81Q20.19-18.94 23.78-21.75Q27.38-24.56 34.81-30.75L34.81-30.75Q47.31-41.13 51.81-47.50Q56.31-53.88 56.31-61.19L56.31-61.19Q56.31-68.56 50.81-73.56Q45.31-78.56 37.13-78.56L37.13-78.56Q32.25-78.56 27.94-76.41Q23.63-74.25 20.75-70.38L20.75-70.38Q18.81-67.88 17.91-65.38Q17-62.88 16.63-59L16.63-59L6.63-62.06Q8.06-67.81 9.69-71.13Q11.31-74.44 14.19-77.56L14.19-77.56Q18.31-82.19 24.28-84.63Q30.25-87.06 37.25-87.06L37.25-87.06Q50-87.06 58.47-79.72Q66.94-72.38 66.94-61.31L66.94-61.31Q66.94-52.38 61.69-44.69Q56.44-37 42.63-25.88L42.63-25.88Q30.56-15.94 20.13-8.81L20.13-8.81L67.19-8.81L67.19 0Z"/>,<path id="g-51" d="M3.81-19.06L3.81-19.06L13.81-22.38Q15.19-18.44 16.50-16.16Q17.81-13.88 19.81-12.06L19.81-12.06Q25.63-7.06 36.63-7.06L36.63-7.06Q47.31-7.06 52.63-12.19L52.63-12.19Q57.50-16.88 57.50-23.44L57.50-23.44Q57.50-31.19 51.41-35.63Q45.31-40.06 34.56-40.06L34.56-40.06L24.81-40.06L24.81-48.63L34.56-48.63Q44.06-48.63 49.22-52.56Q54.38-56.50 54.38-63.63L54.38-63.63Q54.38-70.25 49.44-74.41Q44.50-78.56 36.63-78.56L36.63-78.56Q32.19-78.56 28.16-77Q24.13-75.44 21.38-72.69L21.38-72.69Q18.56-69.88 16.63-64.75L16.63-64.75L6.94-67.44Q9.06-72.38 11.13-75.22Q13.19-78.06 16.50-80.63L16.50-80.63Q25-87.06 37.38-87.06L37.38-87.06Q49.44-87.06 57.34-80.63Q65.25-74.19 65.25-64.38L65.25-64.38Q65.25-57 60.91-51.84Q56.56-46.69 48.88-44.94L48.88-44.94Q58.13-43.19 63.38-37.56Q68.63-31.94 68.63-23.69L68.63-23.69Q68.63-12.38 59.66-5.34Q50.69 1.69 36.25 1.69L36.25 1.69Q23 1.69 13.69-5.38L13.69-5.38Q9.94-8.25 7.84-11.16Q5.75-14.06 3.81-19.06Z"/>,<path id="g-52" d="M46.06-20.38L3.94-20.38L3.94-27.50L43-87.19L56.44-87.19L56.44-28.81L70.25-28.81L70.25-20.38L56.44-20.38L56.44 0L46.06 0L46.06-20.38ZM41.75-70.50L15.13-28.81L46.06-28.81L46.06-69.13Q46.06-74.31 46.31-78.56L46.31-78.56Q42.31-71.31 41.75-70.50L41.75-70.50Z"/>,<path id="g-53" d="M5.50-18.44L5.50-18.44L14.56-21.63Q17.75-14 22.88-10.41Q28-6.81 35.69-6.81L35.69-6.81Q45.69-6.81 51.78-12.78Q57.88-18.75 57.88-28.44L57.88-28.44Q57.88-37.50 52.22-43.25Q46.56-49 37.75-49L37.75-49Q31.50-49 26.66-46.19Q21.81-43.38 17.69-37.38L17.69-37.38L9.19-39.19L12.06-85.38L62.56-85.38L61.69-76.19L19.69-76.19L17.94-48.50Q23.50-53.69 28.13-55.78Q32.75-57.88 38.81-57.88L38.81-57.88Q51.25-57.88 59.75-49.34Q68.25-40.81 68.25-28.31L68.25-28.31Q68.25-15.38 58.97-6.84Q49.69 1.69 35.69 1.69L35.69 1.69Q22 1.69 12.69-7.06L12.69-7.06Q9.94-9.63 8.41-12.06Q6.88-14.50 5.50-18.44Z"/>,<path id="g-54" d="M6.50-40.69L6.50-40.69Q6.50-51.19 9.22-60.50Q11.94-69.81 16.75-76.06L16.75-76.06Q25.25-87.06 41.06-87.06L41.06-87.06Q61.56-87.06 68.63-67.81L68.63-67.81L59-65.25Q56.25-71.94 51.91-75.06Q47.56-78.19 40.94-78.19L40.94-78.19Q33.81-78.19 28.56-74.44Q23.31-70.69 20.38-63.50L20.38-63.50Q16.56-54.63 16.38-38.63L16.38-38.63Q18.25-42.69 19.91-44.94Q21.56-47.19 24.19-49.44L24.19-49.44Q31.81-55.94 42.25-55.94L42.25-55.94Q53.81-55.94 61.84-47.75Q69.88-39.56 69.88-27.75L69.88-27.75Q69.88-15.25 61.13-6.78Q52.38 1.69 39.56 1.69L39.56 1.69Q24.38 1.69 15.44-9.75Q6.50-21.19 6.50-40.69ZM18.81-26.63L18.81-26.63Q18.81-18.38 24.81-12.66Q30.81-6.94 39.44-6.94Q48.06-6.94 54.06-12.69Q60.06-18.44 60.06-26.88L60.06-26.88Q60.06-35.50 54.38-41.44Q48.69-47.38 40.44-47.38L40.44-47.38Q31.69-47.38 25.25-41.22Q18.81-35.06 18.81-26.63Z"/>,<path id="g-55" d="M55.19-76.06L8.81-76.06L10-85.38L66.31-85.38L66.31-79Q56.50-67.31 48.88-52.75L48.88-52.75Q42.94-41.50 39.44-28.03Q35.94-14.56 35.94-2.81L35.94-2.81L35.94 0L24.94 0L24.94-2.44Q24.94-11.50 27.56-22.75Q30.19-34 34.69-44.19L34.69-44.19Q38.31-52.31 44-61.19Q49.69-70.06 55.19-76.06L55.19-76.06Z"/>,<path id="g-56" d="M4.63-22.13L4.63-22.13Q4.63-36.50 24.81-44.31L24.81-44.31Q8.69-51.38 8.69-64.88L8.69-64.88Q8.69-74.75 16.88-80.91Q25.06-87.06 38.13-87.06L38.13-87.06Q51.06-87.06 58.88-81.09Q66.69-75.13 66.69-65.25L66.69-65.25Q66.69-51.63 50.19-45.81L50.19-45.81Q58.19-42 61.94-39.31L61.94-39.31Q65.88-36.44 68.13-31.91Q70.38-27.38 70.38-22.38L70.38-22.38Q70.38-11.63 61.34-4.97Q52.31 1.69 37.75 1.69Q23.19 1.69 13.91-5Q4.63-11.69 4.63-22.13ZM15-21.63L15-21.63Q15-14.75 21.16-10.56Q27.31-6.38 37.50-6.38L37.50-6.38Q47.63-6.38 53.75-10.44Q59.88-14.50 59.88-21.13L59.88-21.13Q59.88-27.44 54.28-31.94Q48.69-36.44 36.63-39.81L36.63-39.81Q15-34.69 15-21.63ZM19.56-65.81L19.56-65.81Q19.56-60.38 24.47-56.03Q29.38-51.69 37.75-49.69L37.75-49.69Q48.19-52.38 52.78-56.16Q57.38-59.94 57.38-65.81L57.38-65.81Q57.38-71.88 52.28-75.44Q47.19-79 38.50-79L38.50-79Q29.94-79 24.75-75.38Q19.56-71.75 19.56-65.81Z"/>,<path id="g-57" d="M5.25-57.75L5.25-57.75Q5.25-70.31 13.84-78.69Q22.44-87.06 35.19-87.06L35.19-87.06Q41.88-87.06 47.84-84.75Q53.81-82.44 57.75-78.31L57.75-78.31Q62.88-73 65.69-64.16Q68.50-55.31 68.50-44.69L68.50-44.69Q68.50-25.19 60.06-11.88L60.06-11.88Q56-5.44 49-1.81Q42 1.81 33.69 1.81L33.69 1.81Q22.88 1.81 15.25-3.94L15.25-3.94Q12.44-6.19 10.75-8.69Q9.06-11.19 7.31-15.63L7.31-15.63L15.88-18.69Q21.13-6.81 33.69-6.81L33.69-6.81Q45.50-6.81 51.88-16.56Q58.25-26.31 58.50-44.94L58.50-44.94Q53.81-36.94 47.75-33.25Q41.69-29.56 33.25-29.56L33.25-29.56Q21.25-29.56 13.25-37.66Q5.25-45.75 5.25-57.75ZM15.63-57.88L15.63-57.88Q15.63-49.31 21.31-43.72Q27-38.13 35.69-38.13L35.69-38.13Q44.13-38.13 50.22-44.16Q56.31-50.19 56.31-58.50L56.31-58.50Q56.31-67 50.53-72.59Q44.75-78.19 35.94-78.19L35.94-78.19Q26.81-78.19 21.22-72.59Q15.63-67 15.63-57.88Z"/>,<path id="g-58" d="M23.06 0L9.06 0L9.06-14.06L23.06-14.06L23.06 0ZM23.06-49.13L9.06-49.13L9.06-63.13L23.06-63.13L23.06-49.13Z"/>,<path id="g-59" d="M13.31 16L8.19 16L15.50 0L9.06 0L9.06-14.19L22.81-14.19L22.81-1.44L13.31 16ZM22.81-49.25L9.06-49.25L9.06-63.13L22.81-63.13L22.81-49.25Z"/>,<path id="g-60" d="M64-12.06L8.56-38.13L8.56-46.44L64-72.44L64-63L18.81-42.25L64-21.63L64-12.06Z"/>,<path id="g-61" d="M67.44-29.31L7.69-29.31L7.69-37.88L67.44-37.88L67.44-29.31ZM67.44-49.56L7.69-49.56L7.69-58.13L67.44-58.13L67.44-49.56Z"/>,<path id="g-62" d="M66.56-38.13L11.13-12.06L11.13-21.63L56.31-42.25L11.13-63L11.13-72.44L66.56-46.44L66.56-38.13Z"/>,<path id="g-63" d="M11.88-59.88L2.56-61.81Q3.75-68 5.44-71.66Q7.13-75.31 10.38-78.75L10.38-78.75Q18.13-87.06 31.63-87.06L31.63-87.06Q44.13-87.06 51.88-80.31Q59.63-73.56 59.63-62.75L59.63-62.75Q59.63-55.63 55.78-50.28Q51.94-44.94 43.63-40.44L43.63-40.44Q40.94-39 39.47-38.16Q38-37.31 36.72-36.25Q35.44-35.19 34.94-34.53Q34.44-33.88 34.03-32.56Q33.63-31.25 33.59-30.16Q33.56-29.06 33.56-26.88L33.56-26.88L33.56-24.31L33.56-21.25L24.56-21.25L24.56-23.31L24.56-29.81Q24.56-37.94 28.81-42L28.81-42Q30.44-43.63 34.56-45.81L34.56-45.81L39.56-48.50Q44-50.88 46.31-54.72Q48.63-58.56 48.63-63.13L48.63-63.13Q48.63-69.75 43.75-74.03Q38.88-78.31 31.38-78.31L31.38-78.31Q27.06-78.31 23.09-76.59Q19.13-74.88 16.75-71.94L16.75-71.94Q15.06-69.69 14-67.09Q12.94-64.50 11.88-59.88L11.88-59.88ZM35.69 0L23.06 0L23.06-12.31L35.69-12.31L35.69 0Z"/>,<path id="g-64" d="M5.13-32.88L5.13-32.88Q5.13-45.13 11-55.31Q16.88-65.50 27.09-71.34Q37.31-77.19 49.69-77.19L49.69-77.19Q61.06-77.19 70.38-72.19Q79.69-67.19 84.97-58.47Q90.25-49.75 90.25-39.06L90.25-39.06Q90.25-26.50 83.84-17.28Q77.44-8.06 68.75-8.06L68.75-8.06Q61.38-8.06 58.63-15.63L58.63-15.63Q55.13-11.31 52.06-9.56Q49-7.81 44.69-7.81L44.69-7.81Q36.25-7.81 30.59-14.47Q24.94-21.13 24.94-31.13L24.94-31.13Q24.94-41.81 31.28-49.06Q37.63-56.31 47-56.31L47-56.31Q51.50-56.31 54.63-54.63Q57.75-52.94 60.44-49L60.44-49L61.19-55.31L69.50-55.31L66.06-26.13Q65.69-23 65.69-20.50L65.69-20.50Q65.69-16.13 69.88-16.13L69.88-16.13Q74.75-16.13 78.66-22.94Q82.56-29.75 82.56-38.25L82.56-38.25Q82.56-51.88 73.28-60.69Q64-69.50 49.69-69.50L49.69-69.50Q39.63-69.50 31.31-64.69Q23-59.88 18.22-51.44Q13.44-43 13.44-32.88L13.44-32.88Q13.44-22.88 18.16-14.38Q22.88-5.88 31.13-1.13L31.13-1.13Q39.19 3.56 51.31 3.56L51.31 3.56Q58.38 3.56 64.28 2.22Q70.19 0.88 76.69-2.19L76.69-2.19L79.38-3.31L82.06 4.25Q74.13 8.06 66.91 9.78Q59.69 11.50 51.44 11.50L51.44 11.50Q37 11.50 26.63 5.50L26.63 5.50Q16.63-0.25 10.88-10.56Q5.13-20.88 5.13-32.88ZM34.69-30.88L34.69-30.88Q34.69-24.50 37.69-20.31Q40.69-16.13 45.19-16.13L45.19-16.13Q50.56-16.13 54.66-21.63Q58.75-27.13 58.75-34.44L58.75-34.44Q58.75-40.38 55.69-44.19Q52.63-48 47.88-48L47.88-48Q42.31-48 38.50-43.09Q34.69-38.19 34.69-30.88Z"/>,<path id="g-65" d="M9.38 0L0.38 0L28.06-85.38L40.31-85.38L68.13 0L57.06 0L48.50-24.94L16.88-24.94L9.38 0ZM33.13-74L19.94-33L46.19-33L33.13-74Z"/>,<path id="g-66" d="M44.31 0L10.63 0L10.63-85.38L44.44-85.38Q49.88-85.38 53.50-84.47Q57.13-83.56 60.44-81.44L60.44-81.44Q64.81-78.50 67.16-74.13Q69.50-69.75 69.50-64.50L69.50-64.50Q69.50-60.38 67.88-56.50Q66.25-52.63 63.50-50.06L63.50-50.06Q61.81-48.50 59.91-47.53Q58-46.56 54.38-45.31L54.38-45.31Q58.75-44.06 60.94-42.94Q63.13-41.81 65.25-39.81L65.25-39.81Q72.06-33 72.06-23.69L72.06-23.69Q72.06-17.25 69.28-12.13Q66.50-7 61.31-3.81L61.31-3.81Q54.94 0 44.31 0L44.31 0ZM21-40.69L21-9.38L43.88-9.38Q52.06-9.38 56.69-13.28Q61.31-17.19 61.31-24.19L61.31-24.19Q61.31-31.13 56.81-35.81L56.81-35.81Q54.38-38.44 51.06-39.56Q47.75-40.69 42.38-40.69L42.38-40.69L21-40.69ZM21-76.69L21-48.75L39.56-48.75Q44.88-48.75 48.09-49.47Q51.31-50.19 53.63-51.94L53.63-51.94Q56-53.75 57.44-56.88Q58.88-60 58.88-63.38L58.88-63.38Q58.88-69.69 54.53-73.19Q50.19-76.69 42.25-76.69L42.25-76.69L21-76.69Z"/>,<path id="g-67" d="M5.38-43.50L5.38-43.50Q5.38-63.31 15.03-75.19Q24.69-87.06 40.81-87.06L40.81-87.06Q64.81-87.06 71.56-59.63L71.56-59.63L61.56-57.75Q58.38-68.44 53.47-73.19Q48.56-77.94 40.69-77.94L40.69-77.94Q29.56-77.94 23.28-68.50Q17-59.06 17-42.38L17-42.38Q17-26.44 23.34-16.94Q29.69-7.44 40.31-7.44L40.31-7.44Q44.94-7.44 49.22-9.56Q53.50-11.69 56.06-15.25L56.06-15.25Q58-17.94 59.19-20.72Q60.38-23.50 61.81-28.69L61.81-28.69L71.56-26.50Q69.81-19.81 68-15.91Q66.19-12 63-8.31L63-8.31Q54.56 1.69 40.06 1.69L40.06 1.69Q25.38 1.69 16.63-8.69L16.63-8.69Q11.13-15.19 8.25-24.16Q5.38-33.13 5.38-43.50Z"/>,<path id="g-68" d="M42.75 0L10.63 0L10.63-85.38L39.19-85.38Q47.19-85.38 53.28-83.13Q59.38-80.88 64.50-76.06L64.50-76.06Q70.75-70.13 74.09-61.59Q77.44-53.06 77.44-43L77.44-43Q77.44-30.81 72.97-20.97Q68.50-11.13 60.53-5.56Q52.56 0 42.75 0L42.75 0ZM21.25-76.44L21.25-9.06L38.63-9.06Q44.38-9.06 49.28-10.91Q54.19-12.75 57.38-16.13L57.38-16.13Q61.69-20.63 64.13-27.81Q66.56-35 66.56-43L66.56-43Q66.56-59.06 57.63-69L57.63-69Q50.75-76.44 38.50-76.44L38.50-76.44L21.25-76.44Z"/>,<path id="g-69" d="M65.81 0L10.63 0L10.63-85.38L64.63-85.38L64.63-76.06L21.25-76.06L21.25-48.75L55.69-48.75L55.69-40.06L21.25-40.06L21.25-9.38L65.81-9.38L65.81 0Z"/>,<path id="g-70" d="M21.25 0L10.63 0L10.63-85.38L62.88-85.38L62.88-76.06L21.25-76.06L21.25-49L55.81-49L55.81-40.44L21.25-40.44L21.25 0Z"/>,<path id="g-71" d="M5.38-41.75L5.38-41.75Q5.38-55.19 10-65.47Q14.63-75.75 23.03-81.41Q31.44-87.06 42.38-87.06L42.38-87.06Q56.94-87.06 65.69-77.19L65.69-77.19Q68.38-74.06 69.94-70.91Q71.50-67.75 73.06-62.31L73.06-62.31L63-59.88Q61.81-64.31 60.63-66.72Q59.44-69.13 57.38-71.31L57.38-71.31Q51.25-77.94 41.38-77.94L41.38-77.94Q35.31-77.94 30.34-75.03Q25.38-72.13 22.63-66.94L22.63-66.94Q17-56.69 17-42.13L17-42.13Q17-27.75 22.50-17.94L22.50-17.94Q25.44-12.81 30.69-9.88Q35.94-6.94 42-6.94L42-6.94Q51.50-6.94 57.31-13.16Q63.13-19.38 63.13-29.44L63.13-29.44Q63.13-32.25 63-34.06L63-34.06L41.88-34.06L41.88-43L74-43L74 1.13L67.31 1.13L64.50-9.63Q60-3.63 54.31-0.91Q48.63 1.81 40.56 1.81L40.56 1.81Q25.56 1.81 16.25-9.06L16.25-9.06Q5.38-21.63 5.38-41.75Z"/>,<path id="g-710" d="M20.50-73.38L11.25-74.63L32.13-90.88L52.75-74.63L43.88-73.38L32-81.81L20.50-73.38Z"/>,<path id="g-72" d="M21.25 0L10.63 0L10.63-85.38L21.25-85.38L21.25-50.06L60.94-50.06L60.94-85.38L71.56-85.38L71.56 0L60.94 0L60.94-40.69L21.25-40.69L21.25 0Z"/>,<path id="g-73" d="M21.25 0L10.63 0L10.63-85.38L21.25-85.38L21.25 0Z"/>,<path id="g-74" d="M0 0L0 0L0-8.69Q6.56-7.56 11.38-7.56L11.38-7.56Q20.94-7.56 24.69-12.44L24.69-12.44Q26.44-14.63 26.91-17.13Q27.38-19.63 27.38-26.13L27.38-26.13L27.38-85.38L38-85.38L38-26.13Q38-11.94 31.75-5.13Q25.50 1.69 12.31 1.69L12.31 1.69Q7.06 1.69 0 0Z"/>,<path id="g-75" d="M21.25 0L10.63 0L10.63-85.38L21.25-85.38L21.25-35.81L59.88-85.38L71.44-85.38L48.25-55.44L78.06 0L66.31 0L40.81-47.13L21.25-22.81L21.25 0Z"/>,<path id="g-76" d="M60.94 0L10.63 0L10.63-85.38L21.50-85.38L21.50-9.38L60.94-9.38L60.94 0Z"/>,<path id="g-77" d="M19.69 0L10.63 0L10.63-85.38L26.50-85.38L52.13-17.13L77.31-85.38L92.94-85.38L92.94 0L82.56 0L82.56-74.50L54.94 0L47.63 0L19.69-74.50L19.69 0Z"/>,<path id="g-78" d="M19.19 0L10.63 0L10.63-85.38L23.94-85.38L65.25-15.75L65.13-21.63Q65-24.81 65-27.88L65-27.88L65-85.38L73.50-85.38L73.50 0L63.13 0L18.94-74.38L19.06-68.75Q19.19-65.94 19.19-63.38L19.19-63.38L19.19 0Z"/>,<path id="g-79" d="M5.38-42.50L5.38-42.50Q5.38-55.50 9.78-65.66Q14.19-75.81 22.19-81.44Q30.19-87.06 40.44-87.06L40.44-87.06Q56.19-87.06 65.78-74.91Q75.38-62.75 75.38-42.75L75.38-42.75Q75.38-33.06 72.41-24.25Q69.44-15.44 64-9.06L64-9.06Q55 1.69 40.19 1.69L40.19 1.69Q24.88 1.69 16-9.38L16-9.38Q5.38-22.31 5.38-42.50ZM16.50-42.38L16.50-42.38Q16.50-26.44 23.06-16.75Q29.63-7.06 40.44-7.06L40.44-7.06Q51.19-7.06 57.72-16.91Q64.25-26.75 64.25-42.88L64.25-42.88Q64.25-59.50 57.91-68.91Q51.56-78.31 40.31-78.31L40.31-78.31Q29.50-78.31 23-68.50Q16.50-58.69 16.50-42.38Z"/>,<path id="g-80" d="M21.25 0L10.63 0L10.63-85.38L40.81-85.38Q52.31-85.38 59.13-80L59.13-80Q63.38-76.69 65.94-71.19Q68.50-65.69 68.50-59.88L68.50-59.88Q68.50-48.81 61.06-41.75Q53.63-34.69 42-34.69L42-34.69L21.25-34.69L21.25 0ZM21.25-76.44L21.25-43.50L40.81-43.50Q48.44-43.50 53.03-48Q57.63-52.50 57.63-59.88L57.63-59.88Q57.63-67.19 53.19-71.81Q48.75-76.44 41.63-76.44L41.63-76.44L21.25-76.44Z"/>,<path id="g-81" d="M5.38-42.38L5.38-42.38Q5.38-62.44 15.13-74.75Q24.88-87.06 40.81-87.06Q56.75-87.06 66.53-74.94Q76.31-62.81 76.31-43L76.31-43Q76.31-21.75 64.50-8.81L64.50-8.81Q61.19-5.31 58.06-3.41Q54.94-1.50 49.69 0L49.69 0L49.69 2.06Q49.69 5.50 51.56 7.81L51.56 7.81Q53 9.75 55.19 10.50Q57.38 11.25 61.31 11.25L61.31 11.25Q66.25 11.25 70.81 10.50L70.81 10.50L70.81 19.06Q65.56 20.50 61.56 20.50L61.56 20.50Q57.19 20.50 53.19 19.28Q49.19 18.06 46.75 16L46.75 16Q44.06 13.69 42.72 10.38Q41.38 7.06 40.94 1.44L40.94 1.44Q33.94 1 29.59-0.47Q25.25-1.94 21-5.13L21-5.13Q13.31-10.88 9.34-20.38Q5.38-29.88 5.38-42.38ZM16.75-42L16.75-42Q16.75-25.88 22.94-16.72Q29.13-7.56 40.06-7.56L40.06-7.56Q45.63-7.56 50.47-9.94Q55.31-12.31 58.25-16.50L58.25-16.50Q61.31-21 63.03-27.78Q64.75-34.56 64.75-42.38L64.75-42.38Q64.75-59.31 58.56-68.50Q52.38-77.69 40.94-77.69L40.94-77.69Q35.19-77.69 30.56-75.41Q25.94-73.13 23.19-69L23.19-69Q20.19-64.50 18.47-57.25Q16.75-50 16.75-42Z"/>,<path id="g-8192" d=""/>,<path id="g-8193" d=""/>,<path id="g-8194" d=""/>,<path id="g-8195" d=""/>,<path id="g-8196" d=""/>,<path id="g-8197" d=""/>,<path id="g-8198" d=""/>,<path id="g-8199" d=""/>,<path id="g-82" d="M20.63 0L10.63 0L10.63-85.38L44.19-85.38Q56.19-85.38 63.69-78.72Q71.19-72.06 71.19-61.44L71.19-61.44Q71.19-57.25 69.56-52.94Q67.94-48.63 65.25-45.69L65.25-45.69Q63.38-43.50 61.25-42.22Q59.13-40.94 55.31-39.56L55.31-39.56L72.06 0L60.81 0L45.06-37L20.63-37L20.63 0ZM20.63-76.06L20.63-45.69L42.88-45.69Q51.63-45.69 56.19-50.44L56.19-50.44Q60.56-55 60.56-61.69L60.56-61.69Q60.56-68.31 56.16-72.19Q51.75-76.06 44.19-76.06L44.19-76.06L20.63-76.06Z"/>,<path id="g-8200" d=""/>,<path id="g-8201" d=""/>,<path id="g-8202" d=""/>,<path id="g-8208" d="M30.19-28.19L1.94-28.19L1.94-35.81L30.19-35.81L30.19-28.19Z"/>,<path id="g-8209" d="M30.19-28.19L1.94-28.19L1.94-35.81L30.19-35.81L30.19-28.19Z"/>,<path id="g-8210" d="M30.19-28.19L1.94-28.19L1.94-35.81L30.19-35.81L30.19-28.19Z"/>,<path id="g-8211" d="M62.31-28.19L12.56-28.19L12.56-35.81L62.31-35.81L62.31-28.19Z"/>,<path id="g-8212" d="M85.13-28.19L0.25-28.19L0.25-35.81L85.13-35.81L85.13-28.19Z"/>,<path id="g-8216" d="M22.38-57.75L9.63-57.75L9.63-70.38L18.06-85.38L22.38-85.38L16.25-70.38L22.38-70.38L22.38-57.75Z"/>,<path id="g-8217" d="M13.94-57.75L9.63-57.75L15.75-72.69L9.63-72.69L9.63-85.38L22.38-85.38L22.38-72.69L13.94-57.75Z"/>,<path id="g-8218" d="M15.75 0L9.63 0L9.63-12.69L22.38-12.69L22.38 0L13.94 15L9.63 15L15.75 0Z"/>,<path id="g-8220" d="M21.88-58L9.63-58L9.63-68.63L19.31-85.38L23.81-85.38L16.75-70.25L21.88-70.25L21.88-58ZM40.81-58L28.31-58L28.31-68.63L38.38-85.38L43-85.38L35.69-70.25L40.81-70.25L40.81-58Z"/>,<path id="g-8221" d="M13.56-58L8.94-58L16.25-73.06L11.13-73.06L11.13-85.38L23.69-85.38L23.69-74.75L13.56-58ZM32.63-58L28.19-58L35.19-73.06L30.06-73.06L30.06-85.38L42.38-85.38L42.38-74.75L32.63-58Z"/>,<path id="g-8222" d="M13.56 15L8.94 15L16.25 0L11.13 0L11.13-12.31L23.69-12.31L23.69-1.69L13.56 15ZM32.63 15L28.19 15L35.19 0L30.06 0L30.06-12.31L42.38-12.31L42.38-1.69L32.63 15Z"/>,<path id="g-8226" d="M25.06-43.25L25.06-43.25Q25.06-50.75 30.28-55.91Q35.50-61.06 43-61.06L43-61.06Q50.19-61.06 55.38-55.81Q60.56-50.56 60.56-43.25Q60.56-35.94 55.38-30.78Q50.19-25.63 42.88-25.63L42.88-25.63Q35.50-25.63 30.28-30.78Q25.06-35.94 25.06-43.25Z"/>,<path id="g-8230" d="M22.94 0L8.94 0L8.94-13.94L22.94-13.94L22.94 0ZM54.63 0L40.81 0L40.81-13.94L54.63-13.94L54.63 0ZM86.38 0L72.44 0L72.44-13.94L86.38-13.94L86.38 0Z"/>,<path id="g-8239" d=""/>,<path id="g-8249" d="M15.88-15L5.13-33.25L15.88-50.94L21.50-50.94L14.88-33.25L21.50-15L15.88-15Z"/>,<path id="g-8250" d="M11.63-15L6-15L12.69-32.63L6-50.94L11.63-50.94L22.38-32.63L11.63-15Z"/>,<path id="g-8287" d=""/>,<path id="g-83" d="M1.25-22.81L1.25-22.81L10.88-24.81Q16.69-7.44 36.13-7.44L36.13-7.44Q45.63-7.44 51.09-11.59Q56.56-15.75 56.56-23.06L56.56-23.06Q56.56-27.81 53.09-31.38Q49.63-34.94 43.50-36.50L43.50-36.50L26.50-40.81Q21.13-42.19 18.06-43.59Q15-45 12.44-47.25L12.44-47.25Q5.50-53.81 5.50-63.75L5.50-63.75Q5.50-74.19 13.44-80.63Q21.38-87.06 34.31-87.06L34.31-87.06Q45.75-87.06 53.47-81.75Q61.19-76.44 64.75-66.06L64.75-66.06L55.19-63.38Q54.38-66.69 53.19-68.69Q52-70.69 49.81-72.56L49.81-72.56Q43.19-78.31 33.94-78.31L33.94-78.31Q26.13-78.31 21-74.38Q15.88-70.44 15.88-64.38L15.88-64.38Q15.88-59.25 19.09-56.25Q22.31-53.25 29.81-51.44L29.81-51.44L45.69-47.63Q67.69-42.25 67.69-24.06L67.69-24.06Q67.69-12.31 59.06-5.31Q50.44 1.69 35.94 1.69L35.94 1.69Q20.31 1.69 11.13-6.94L11.13-6.94Q7.75-10.06 5.66-13.41Q3.56-16.75 1.25-22.81Z"/>,<path id="g-8364" d="M13.69-32.50L5.25-32.50L7.56-39.94L12.94-39.94L12.94-42.75L12.94-44.56L5.25-44.56L7.56-51.94L13.56-51.94Q16.31-68.56 25.38-77.81Q34.44-87.06 48-87.06L48-87.06Q61.31-87.06 70.63-77.94L70.63-77.94L67.06-66.19Q60.38-78.31 47.88-78.31L47.88-78.31Q38.75-78.31 32.84-71.56Q26.94-64.81 24.81-51.94L24.81-51.94L62.31-51.94L60.06-44.69L24.19-44.56Q24.06-42.88 24.06-42.25L24.06-42.25Q24.06-41.50 24.19-39.94L24.19-39.94L58.38-39.94L56.06-32.50L24.81-32.50Q26.81-20.50 32.94-13.78Q39.06-7.06 48-7.06L48-7.06Q60.31-7.06 67.06-19.94L67.06-19.94L67.06-4.63Q59.44 1.69 47.75 1.69L47.75 1.69Q34.19 1.69 25.28-7.28Q16.38-16.25 13.69-32.50L13.69-32.50Z"/>,<path id="g-84" d="M25.75-76.06L1.25-76.06L1.25-85.38L60.81-85.38L60.81-76.06L36.38-76.06L36.38 0L25.75 0L25.75-76.06Z"/>,<path id="g-85" d="M9.38-29.56L9.38-29.56L9.38-85.38L19.94-85.38L19.94-29.56Q19.94-18.50 23.44-13.94L23.44-13.94Q25.63-11.06 29.97-9.38Q34.31-7.69 39.31-7.69L39.31-7.69Q44.25-7.69 48.41-9.34Q52.56-11 55.06-13.94L55.06-13.94Q57.31-16.56 58.28-20.19Q59.25-23.81 59.25-29.56L59.25-29.56L59.25-85.38L68.13-85.38L68.13-29.56Q68.13-22.25 66.78-17.38Q65.44-12.50 62.31-8.44L62.31-8.44Q54.69 1.69 38.38 1.69L38.38 1.69Q21.50 1.69 14.44-8.44L14.44-8.44Q11.75-12.38 10.56-17.31Q9.38-22.25 9.38-29.56Z"/>,<path id="g-86" d="M29.19 0L0.38-85.38L11.50-85.38L35.31-15L58.88-85.38L68.25-85.38L39.44 0L29.19 0Z"/>,<path id="g-87" d="M24.06 0L2.44-85.38L13.44-85.38L30.56-16.25L48.75-85.38L57.38-85.38L76.94-16.25L92.81-85.38L102.13-85.38L81.69 0L70.94 0L52.38-66.19L34.94 0L24.06 0Z"/>,<path id="g-88" d="M10.25 0L0.25 0L27.63-44.19L3.19-85.38L15.13-85.38L33.94-53.75L53-85.38L62.75-85.38L38.81-46.31L66.19 0L54.13 0L32.50-36.38L10.25 0Z"/>,<path id="g-89" d="M27.25-35.94L-1.25-85.38L11.25-85.38L33.94-46.06L56.69-85.38L66.44-85.38L37.88-35.94L37.88 0L27.25 0L27.25-35.94Z"/>,<path id="g-90" d="M63.63 0L3.44 0L3.44-9.06L49.81-76.06L5.63-76.06L5.63-84.75L62.19-84.75L62.19-77.69L15.38-9.06L63.63-9.06L63.63 0Z"/>,<path id="g-91" d="M32.25 21.38L10.13 21.38L10.13-85.38L32.25-85.38L32.25-79L18.69-79L18.69 14.56L32.25 14.56L32.25 21.38Z"/>,<path id="g-92" d="M55.69 21.38L4.25-85.38L12.56-85.38L64.13 21.38L55.69 21.38Z"/>,<path id="g-93" d="M5.25 21.38L5.25 15L18.81 15L18.81-78.56L5.25-78.56L5.25-85.38L27.38-85.38L27.38 21.38L5.25 21.38Z"/>,<path id="g-95" d="M0 17L0 8.44L64 8.44L64 17L0 17Z"/>,<path id="g-97" d="M4.25-17.44L4.25-17.44Q4.25-22.81 7.13-27.50Q10-32.19 14.88-34.69L14.88-34.69Q23.56-39.31 40.19-39.31L40.19-39.31Q44.44-39.31 48.38-39.06L48.38-39.06L48.38-41.06Q48.38-49.06 45.94-52.25L45.94-52.25Q42.13-57.38 31.88-57.38L31.88-57.38Q17.56-57.38 15-45.81L15-45.81L5.88-47.38Q6.50-50.94 7.56-53.06Q8.63-55.19 10.63-57.19L10.63-57.19Q18.13-64.88 34.06-64.88L34.06-64.88Q48.19-64.88 53.63-57.50L53.63-57.50Q55.94-54.31 56.91-50.13Q57.88-45.94 57.88-39.06L57.88-39.06L57.88-12.31Q57.88-5.25 59.25 0L59.25 0L49.56 0Q48.75-3.94 48.38-11.38L48.38-11.38Q44.56-4.38 39.44-1.34Q34.31 1.69 26.25 1.69L26.25 1.69Q16.50 1.69 10.38-3.66Q4.25-9 4.25-17.44ZM14.75-17.13L14.75-17.13Q14.75-12 18.41-8.94Q22.06-5.88 28.19-5.88L28.19-5.88Q36.75-5.88 42.63-12.13Q48.50-18.38 48.50-27.50L48.50-27.50Q48.50-29.94 48.38-31.63L48.38-31.63Q41.75-31.88 40.06-31.88L40.06-31.88Q27.75-31.88 21.25-28.09Q14.75-24.31 14.75-17.13Z"/>,<path id="g-9724" d="M63.38 0L0 0L0-63.38L63.38-63.38L63.38 0Z"/>,<path id="g-98" d="M14.56 0L9.88 0L9.88-85.38L19.69-85.38L19.69-52.63Q23.56-59.13 27.84-61.94Q32.13-64.75 38.25-64.75L38.25-64.75Q49.69-64.75 56.78-55.66Q63.88-46.56 63.88-31.88Q63.88-17.19 56.59-7.75Q49.31 1.69 37.88 1.69L37.88 1.69Q31.50 1.69 26.72-1.28Q21.94-4.25 18.19-10.50L18.19-10.50L14.56 0ZM19.69-38.94L19.69-24.69Q20.13-20.31 20.97-17.84Q21.81-15.38 23.56-12.94L23.56-12.94Q25.88-10 29.50-8.19Q33.13-6.38 36.88-6.38L36.88-6.38Q44.50-6.38 49-12.94Q53.50-19.50 53.50-30.56L53.50-30.56Q53.50-36.44 52.13-41.84Q50.75-47.25 48.38-50.81L48.38-50.81Q46.56-53.50 43.44-55.09Q40.31-56.69 36.88-56.69L36.88-56.69Q30-56.69 24.69-50.81L24.69-50.81Q22.50-48.25 21.41-45.69Q20.31-43.13 19.69-38.94L19.69-38.94Z"/>,<path id="g-99" d="M4.88-31.50L4.88-31.50Q4.88-46.44 12.34-55.59Q19.81-64.75 32-64.75L32-64.75Q41.69-64.75 47.84-59.13Q54-53.50 55.94-42.75L55.94-42.75L47.13-41.06Q46.19-47.19 43.75-50.69L43.75-50.69Q39.31-56.69 31.88-56.69L31.88-56.69Q24.19-56.69 19.66-49.97Q15.13-43.25 15.13-31.75L15.13-31.75Q15.13-19.88 19.53-13.13Q23.94-6.38 31.75-6.38L31.75-6.38Q43.81-6.38 47.13-22.13L47.13-22.13L55.94-20.63Q54.75-14.88 53.16-11.53Q51.56-8.19 48.50-5.13L48.50-5.13Q41.88 1.69 31.50 1.69L31.50 1.69Q19.38 1.69 12.13-7.38Q4.88-16.44 4.88-31.50Z"/></defs></svg>